<svg xmlns="http://www.w3.org/2000/svg" viewBox="0 0 129.06 139.25"><defs><style>.cls-1{fill:#4b4848;}.cls-2{fill:#00acc0;}.cls-3{fill:#4a4848;}.cls-4{fill:#e53d38;}</style></defs><title>Asset 7</title><g id="Layer_2" data-name="Layer 2"><g id="Layer_1-2" data-name="Layer 1"><path class="cls-1" d="M11.93,10.27c0-1.66,0-3.35,0-5A4.94,4.94,0,0,1,17.06,0c1.29,0,2.58,0,3.87,0a5,5,0,0,1,4.89,5c0,1.65,0,3.3,0,5.06H57.25c0-1.54,0-3.07,0-4.6C57.32,2,59.3.05,62.78,0c1,0,2.07,0,3.1,0a5,5,0,0,1,5.26,5.21c0,1.59,0,3.18,0,4.87h31.49c0-1.67,0-3.31,0-4.94a4.94,4.94,0,0,1,5-5.14q1.93-.06,3.87,0a5,5,0,0,1,5,5c0,1.65,0,3.3,0,5a10.55,10.55,0,0,0,1.16.39A14.12,14.12,0,0,1,129,23.5c0,.51.05,1,.05,1.54q0,49.62,0,99.22c0,6.88-3.69,12.26-9.81,14.2a15.86,15.86,0,0,1-4.69.75q-50,.06-100,0A14.24,14.24,0,0,1,.06,125.51c0-.46,0-.93,0-1.39C0,91.2.08,58.28,0,25.36,0,17.47,4.55,13,8.87,11.25,9.82,10.87,10.81,10.62,11.93,10.27ZM3.83,46.33V48.1c0,25.38.09,50.77-.07,76.15a10.94,10.94,0,0,0,11.13,11.22c33.12-.07,66.24,0,99.36,0,6.69,0,11-4.41,11-11.08q0-38.14,0-76.3V46.33Zm0-4H125.2c0-.34.06-.59.06-.84,0-5.83,0-11.65,0-17.48a10.34,10.34,0,0,0-.39-2.59c-1.09-3.83-4.91-7.1-8.33-7.1,0,1.59,0,3.19,0,4.78a5,5,0,0,1-4.89,5c-1.23.05-2.47,0-3.71,0a5,5,0,0,1-5.28-5.35c0-1.58,0-3.16,0-4.71H71.14c0,1.81,0,3.51,0,5.2a4.89,4.89,0,0,1-5,4.86c-1.08,0-2.17,0-3.25,0-3.66,0-5.6-2-5.64-5.66,0-1.47,0-2.94,0-4.4H25.83c0,1.73,0,3.32,0,4.92a5,5,0,0,1-5.06,5.13c-1.24,0-2.47,0-3.71,0a5,5,0,0,1-5.11-5.21c0-1.51,0-3,0-4.67-4.12,1.19-6.73,3.62-7.74,7.53A17.48,17.48,0,0,0,3.85,26C3.81,31.42,3.83,36.83,3.83,42.33ZM106.36,12v4c0,4.67-.54,4.3,4.33,4.29,1.79,0,2.08-.28,2.08-2.05q0-5,0-10c0-4.85.51-4.32-4.4-4.38-1.44,0-2.08.49-2,2C106.42,7.85,106.36,9.92,106.36,12Zm-84.29.16c0-2.16,0-4.32,0-6.49,0-1.32-.54-1.9-1.85-1.83a25.64,25.64,0,0,1-2.63,0c-1.35-.07-2,.47-2,1.9,0,3.4,0,6.8,0,10.2,0,4.84-.58,4.35,4.55,4.4,1.42,0,1.91-.63,1.87-2C22,16.27,22.07,14.21,22.07,12.14Zm45.3-.07c0-1.29,0-2.58,0-3.87-.08-4.85.85-4.34-4.48-4.39-1.3,0-1.85.46-1.82,1.82.06,3.45,0,6.9,0,10.35,0,4.78-.88,4.29,4.54,4.32,1.22,0,1.79-.45,1.75-1.74C67.32,16.4,67.37,14.23,67.37,12.07Z"/><path class="cls-2" d="M3.83,42.33c0-5.5,0-10.91,0-16.31a17.48,17.48,0,0,1,.35-4.29c1-3.91,3.62-6.34,7.74-7.53,0,1.65,0,3.16,0,4.67a5,5,0,0,0,5.11,5.21c1.24,0,2.47,0,3.71,0A5,5,0,0,0,25.82,19c0-1.6,0-3.19,0-4.92H57.26c0,1.46,0,2.93,0,4.4,0,3.69,2,5.64,5.64,5.66,1.08,0,2.17,0,3.25,0a4.89,4.89,0,0,0,5-4.86c.07-1.69,0-3.39,0-5.2h31.5c0,1.55,0,3.13,0,4.71a5,5,0,0,0,5.28,5.35c1.24,0,2.48.05,3.71,0a5,5,0,0,0,4.89-5c0-1.59,0-3.19,0-4.78,3.42,0,7.24,3.27,8.33,7.1a10.34,10.34,0,0,1,.39,2.59c0,5.83,0,11.65,0,17.48,0,.25,0,.5-.06.84Z"/><path class="cls-3" d="M106.36,12c0-2.06.06-4.13,0-6.18,0-1.5.59-2,2-2,4.91.06,4.39-.47,4.4,4.38q0,5,0,10c0,1.77-.29,2.05-2.08,2.05-4.87,0-4.31.38-4.33-4.29Z"/><path class="cls-3" d="M22.07,12.14c0,2.07,0,4.13,0,6.19,0,1.35-.45,2-1.87,2-5.13,0-4.53.44-4.55-4.4,0-3.4,0-6.8,0-10.2,0-1.43.6-2,2-1.9a25.64,25.64,0,0,0,2.63,0c1.31-.07,1.88.51,1.85,1.83C22,7.82,22.07,10,22.07,12.14Z"/><path class="cls-3" d="M67.37,12.07c0,2.16-.05,4.33,0,6.49,0,1.29-.53,1.75-1.75,1.74-5.42,0-4.49.46-4.54-4.32,0-3.45,0-6.9,0-10.35,0-1.36.52-1.83,1.82-1.82,5.33,0,4.4-.46,4.48,4.39C67.39,9.49,67.37,10.78,67.37,12.07Z"/><path class="cls-3" d="M85.18,74.75h-17V57.69h17Z"/><path class="cls-3" d="M43.27,100.06v-17h17c0,.47.09,1,.09,1.45,0,4.69,0,9.38,0,14.08,0,1.15-.22,1.63-1.52,1.61-4.74-.08-9.49,0-14.23,0C44.22,100.16,43.77,100.1,43.27,100.06Z"/><path class="cls-3" d="M43.3,57.64h17V74.7h-17Z"/><path class="cls-3" d="M85.22,83.06v17H68.1v-17Z"/><path class="cls-3" d="M85.17,125.37h-17v-17h17Z"/><path class="cls-3" d="M43.28,125.36v-17h17v17Z"/><path class="cls-3" d="M18.47,57.66H35.39V74.74H18.47Z"/><path class="cls-4" d="M110,57.69v17H93.07v-17Z"/><path class="cls-3" d="M18.46,100.06v-17h16.9v17Z"/><path class="cls-4" d="M110,100.06H93.05v-17H110Z"/><path class="cls-3" d="M35.37,125.37H18.46v-17H35.37Z"/><path class="cls-4" d="M93.05,108.38H110v17H93.05Z"/></g></g></svg>